<?xml version="1.0" encoding="utf-8" standalone="no"?>
<!DOCTYPE svg PUBLIC "-//W3C//DTD SVG 1.1//EN"
  "http://www.w3.org/Graphics/SVG/1.1/DTD/svg11.dtd">
<!-- Created with matplotlib (https://matplotlib.org/) -->
<svg height="345.6pt" version="1.1" viewBox="0 0 460.8 345.6" width="460.8pt" xmlns="http://www.w3.org/2000/svg" xmlns:xlink="http://www.w3.org/1999/xlink">
 <defs>
  <style type="text/css">
*{stroke-linecap:butt;stroke-linejoin:round;}
  </style>
 </defs>
 <g id="figure_1">
  <g id="patch_1">
   <path d="M 0 345.6 
L 460.8 345.6 
L 460.8 0 
L 0 0 
z
" style="fill:#ffffff;"/>
  </g>
  <g id="axes_1">
   <g id="patch_2">
    <path d="M 57.6 307.584 
L 414.72 307.584 
L 414.72 41.472 
L 57.6 41.472 
z
" style="fill:#ffffff;"/>
   </g>
   <g id="matplotlib.axis_1">
    <g id="xtick_1">
     <g id="line2d_1">
      <defs>
       <path d="M 0 0 
L 0 3.5 
" id="m29ecd20447" style="stroke:#000000;stroke-width:0.8;"/>
      </defs>
      <g>
       <use style="stroke:#000000;stroke-width:0.8;" x="57.6" xlink:href="#m29ecd20447" y="307.584"/>
      </g>
     </g>
     <g id="text_1">
      <!-- $-1.5$ -->
      <defs>
       <path d="M 65.90625 23 
C 67.59375 23 69.40625 23 69.40625 25 
C 69.40625 27 67.59375 27 65.90625 27 
L 11.796875 27 
C 10.09375 27 8.296875 27 8.296875 25 
C 8.296875 23 10.09375 23 11.796875 23 
z
" id="CMSY10-0"/>
       <path d="M 26.59375 63.796875 
C 26.59375 65.890625 26.5 66 25.09375 66 
C 21.203125 61.359375 15.296875 59.890625 9.703125 59.6875 
C 9.40625 59.6875 8.90625 59.6875 8.796875 59.5 
C 8.703125 59.296875 8.703125 59.09375 8.703125 57 
C 11.796875 57 17 57.59375 21 59.984375 
L 21 7.296875 
C 21 3.796875 20.796875 2.59375 12.203125 2.59375 
L 9.203125 2.59375 
L 9.203125 0 
C 14 0.09375 19 0.1875 23.796875 0.1875 
C 28.59375 0.1875 33.59375 0.09375 38.40625 0 
L 38.40625 2.59375 
L 35.40625 2.59375 
C 26.796875 2.59375 26.59375 3.6875 26.59375 7.296875 
z
" id="CMR17-49"/>
       <path d="M 18.40625 4.796875 
C 18.40625 7.6875 16 9.6875 13.59375 9.6875 
C 10.703125 9.6875 8.703125 7.296875 8.703125 4.890625 
C 8.703125 2 11.09375 0 13.5 0 
C 16.40625 0 18.40625 2.390625 18.40625 4.796875 
z
" id="CMMI12-58"/>
       <path d="M 11.40625 58.59375 
C 12.40625 58.1875 16.5 56.890625 20.703125 56.890625 
C 30 56.890625 35.09375 61.890625 38 64.6875 
C 38 65.484375 38 66 37.40625 66 
C 37.296875 66 37.09375 66 36.296875 65.59375 
C 32.796875 64.09375 28.703125 63 23.703125 63 
C 20.703125 63 16.203125 63.359375 11.296875 65.484375 
C 10.203125 66 10 66 9.90625 66 
C 9.40625 66 9.296875 65.890625 9.296875 63.90625 
L 9.296875 34.859375 
C 9.296875 33.015625 9.296875 32.5 10.296875 32.5 
C 10.796875 32.5 11 32.703125 11.5 33.421875 
C 14.703125 38.046875 19.09375 40 24.09375 40 
C 27.59375 40 35.09375 37.734375 35.09375 20.203125 
C 35.09375 16.984375 35.09375 11.1875 32.09375 6.59375 
C 29.59375 2.484375 25.703125 0.390625 21.40625 0.390625 
C 14.796875 0.390625 8.09375 4.984375 6.296875 12.6875 
C 6.703125 12.59375 7.5 12.390625 7.90625 12.390625 
C 9.203125 12.390625 11.703125 13.09375 11.703125 16.1875 
C 11.703125 18.890625 9.796875 20 7.90625 20 
C 5.59375 20 4.09375 18.59375 4.09375 15.796875 
C 4.09375 7.09375 11 -2 21.59375 -2 
C 31.90625 -2 41.703125 6.890625 41.703125 19.796875 
C 41.703125 32.09375 33.90625 41.59375 24.203125 41.59375 
C 19.09375 41.59375 14.796875 39.6875 11.40625 36 
z
" id="CMR17-53"/>
      </defs>
      <g transform="translate(47.360589 321.502498)scale(0.1 -0.1)">
       <use transform="scale(0.996264)" xlink:href="#CMSY10-0"/>
       <use transform="translate(77.487468 0)scale(0.996264)" xlink:href="#CMR17-49"/>
       <use transform="translate(123.177945 0)scale(0.996264)" xlink:href="#CMMI12-58"/>
       <use transform="translate(150.275122 0)scale(0.996264)" xlink:href="#CMR17-53"/>
      </g>
     </g>
    </g>
    <g id="xtick_2">
     <g id="line2d_2">
      <g>
       <use style="stroke:#000000;stroke-width:0.8;" x="117.12" xlink:href="#m29ecd20447" y="307.584"/>
      </g>
     </g>
     <g id="text_2">
      <!-- $-1.0$ -->
      <defs>
       <path d="M 42 31.84375 
C 42 37.96875 41.90625 48.421875 37.703125 56.453125 
C 34 63.484375 28.09375 66 22.90625 66 
C 18.09375 66 12 63.78125 8.203125 56.5625 
C 4.203125 49.015625 3.796875 39.671875 3.796875 31.84375 
C 3.796875 26.109375 3.90625 17.375 7 9.734375 
C 11.296875 -0.609375 19 -2 22.90625 -2 
C 27.5 -2 34.5 -0.109375 38.59375 9.4375 
C 41.59375 16.375 42 24.5 42 31.84375 
z
M 22.90625 -0.40625 
C 16.5 -0.40625 12.703125 5.125 11.296875 12.75 
C 10.203125 18.6875 10.203125 27.328125 10.203125 32.953125 
C 10.203125 40.6875 10.203125 47.109375 11.5 53.234375 
C 13.40625 61.78125 19 64.390625 22.90625 64.390625 
C 27 64.390625 32.296875 61.671875 34.203125 53.4375 
C 35.5 47.71875 35.59375 40.984375 35.59375 32.953125 
C 35.59375 26.421875 35.59375 18.375 34.40625 12.453125 
C 32.296875 1.5 26.40625 -0.40625 22.90625 -0.40625 
z
" id="CMR17-48"/>
      </defs>
      <g transform="translate(106.880589 321.502498)scale(0.1 -0.1)">
       <use transform="scale(0.996264)" xlink:href="#CMSY10-0"/>
       <use transform="translate(77.487468 0)scale(0.996264)" xlink:href="#CMR17-49"/>
       <use transform="translate(123.177945 0)scale(0.996264)" xlink:href="#CMMI12-58"/>
       <use transform="translate(150.275122 0)scale(0.996264)" xlink:href="#CMR17-48"/>
      </g>
     </g>
    </g>
    <g id="xtick_3">
     <g id="line2d_3">
      <g>
       <use style="stroke:#000000;stroke-width:0.8;" x="176.64" xlink:href="#m29ecd20447" y="307.584"/>
      </g>
     </g>
     <g id="text_3">
      <!-- $-0.5$ -->
      <g transform="translate(166.400589 321.502498)scale(0.1 -0.1)">
       <use transform="scale(0.996264)" xlink:href="#CMSY10-0"/>
       <use transform="translate(77.487468 0)scale(0.996264)" xlink:href="#CMR17-48"/>
       <use transform="translate(123.177945 0)scale(0.996264)" xlink:href="#CMMI12-58"/>
       <use transform="translate(150.275122 0)scale(0.996264)" xlink:href="#CMR17-53"/>
      </g>
     </g>
    </g>
    <g id="xtick_4">
     <g id="line2d_4">
      <g>
       <use style="stroke:#000000;stroke-width:0.8;" x="236.16" xlink:href="#m29ecd20447" y="307.584"/>
      </g>
     </g>
     <g id="text_4">
      <!-- $0.0$ -->
      <g transform="translate(229.794961 321.502498)scale(0.1 -0.1)">
       <use transform="scale(0.996264)" xlink:href="#CMR17-48"/>
       <use transform="translate(45.690477 0)scale(0.996264)" xlink:href="#CMMI12-58"/>
       <use transform="translate(72.787654 0)scale(0.996264)" xlink:href="#CMR17-48"/>
      </g>
     </g>
    </g>
    <g id="xtick_5">
     <g id="line2d_5">
      <g>
       <use style="stroke:#000000;stroke-width:0.8;" x="295.68" xlink:href="#m29ecd20447" y="307.584"/>
      </g>
     </g>
     <g id="text_5">
      <!-- $0.5$ -->
      <g transform="translate(289.314961 321.502498)scale(0.1 -0.1)">
       <use transform="scale(0.996264)" xlink:href="#CMR17-48"/>
       <use transform="translate(45.690477 0)scale(0.996264)" xlink:href="#CMMI12-58"/>
       <use transform="translate(72.787654 0)scale(0.996264)" xlink:href="#CMR17-53"/>
      </g>
     </g>
    </g>
    <g id="xtick_6">
     <g id="line2d_6">
      <g>
       <use style="stroke:#000000;stroke-width:0.8;" x="355.2" xlink:href="#m29ecd20447" y="307.584"/>
      </g>
     </g>
     <g id="text_6">
      <!-- $1.0$ -->
      <g transform="translate(348.834961 321.502498)scale(0.1 -0.1)">
       <use transform="scale(0.996264)" xlink:href="#CMR17-49"/>
       <use transform="translate(45.690477 0)scale(0.996264)" xlink:href="#CMMI12-58"/>
       <use transform="translate(72.787654 0)scale(0.996264)" xlink:href="#CMR17-48"/>
      </g>
     </g>
    </g>
    <g id="xtick_7">
     <g id="line2d_7">
      <g>
       <use style="stroke:#000000;stroke-width:0.8;" x="414.72" xlink:href="#m29ecd20447" y="307.584"/>
      </g>
     </g>
     <g id="text_7">
      <!-- $1.5$ -->
      <g transform="translate(408.354961 321.502498)scale(0.1 -0.1)">
       <use transform="scale(0.996264)" xlink:href="#CMR17-49"/>
       <use transform="translate(45.690477 0)scale(0.996264)" xlink:href="#CMMI12-58"/>
       <use transform="translate(72.787654 0)scale(0.996264)" xlink:href="#CMR17-53"/>
      </g>
     </g>
    </g>
    <g id="text_8">
     <!-- $x_1$ -->
     <defs>
      <path d="M 47.40625 41 
C 44.203125 40.390625 43 37.984375 43 36.09375 
C 43 33.6875 44.90625 32.890625 46.296875 32.890625 
C 49.296875 32.890625 51.40625 35.484375 51.40625 38.1875 
C 51.40625 42.09375 46.59375 44 42.40625 44 
C 36.296875 44 32.90625 38.296875 32 36.390625 
C 29.703125 43.59375 23.5 44 21.703125 44 
C 11.5 44 6.09375 31.140625 6.09375 28.890625 
C 6.09375 28.484375 6.5 27.96875 7.203125 27.96875 
C 8 27.96875 8.203125 28.578125 8.40625 28.984375 
C 11.796875 40.1875 18.5 41.984375 21.40625 41.984375 
C 25.90625 41.984375 26.796875 38.09375 26.796875 35.6875 
C 26.796875 33.484375 26.203125 31.140625 25 26.21875 
L 21.59375 12.15625 
C 20.09375 6.09375 17.203125 1 11.90625 1 
C 11.40625 1 8.90625 1 6.796875 1.96875 
C 10.40625 2.59375 11.203125 5.59375 11.203125 6.796875 
C 11.203125 8.796875 9.703125 10 7.796875 10 
C 5.40625 10 2.796875 7.890625 2.796875 4.6875 
C 2.796875 0.890625 7.5 -1 11.796875 -1 
C 16.59375 -1 20 2.390625 22.09375 6.484375 
C 23.703125 1 28.703125 -1 32.40625 -1 
C 42.59375 -1 48 11.734375 48 14 
C 48 14.515625 47.59375 14.921875 47 14.921875 
C 46.09375 14.921875 46 14.40625 45.703125 13.59375 
C 43 4.6875 37.203125 1 32.703125 1 
C 29.203125 1 27.296875 3.1875 27.296875 7.296875 
C 27.296875 9.484375 27.703125 11.125 29.296875 17.90625 
L 32.796875 31.859375 
C 34.296875 37.890625 37.703125 41.984375 42.296875 41.984375 
C 42.5 41.984375 45.296875 41.984375 47.40625 41 
z
" id="CMMI12-120"/>
     </defs>
     <g transform="translate(227.202365 341.276673)scale(0.2 -0.2)">
      <use transform="translate(0 14.943915)scale(0.996264)" xlink:href="#CMMI12-120"/>
      <use transform="translate(55.43406 0)scale(0.697382)" xlink:href="#CMR17-49"/>
     </g>
    </g>
   </g>
   <g id="matplotlib.axis_2">
    <g id="ytick_1">
     <g id="line2d_8">
      <defs>
       <path d="M 0 0 
L -3.5 0 
" id="mf5e21e6c0b" style="stroke:#000000;stroke-width:0.8;"/>
      </defs>
      <g>
       <use style="stroke:#000000;stroke-width:0.8;" x="57.6" xlink:href="#mf5e21e6c0b" y="283.392"/>
      </g>
     </g>
     <g id="text_9">
      <!-- $-3$ -->
      <defs>
       <path d="M 22.09375 34 
C 31 34 34.90625 26.140625 34.90625 17.09375 
C 34.90625 5.03125 28.5 0.390625 22.703125 0.390625 
C 17.40625 0.390625 8.796875 3.015625 6.09375 10.796875 
C 6.59375 10.59375 7.09375 10.59375 7.59375 10.59375 
C 10 10.59375 11.796875 12.1875 11.796875 14.796875 
C 11.796875 17.6875 9.59375 19 7.59375 19 
C 5.90625 19 3.296875 18.1875 3.296875 14.484375 
C 3.296875 5.234375 12.296875 -2 22.90625 -2 
C 34 -2 42.5 6.75 42.5 16.984375 
C 42.5 26.84375 34.5 34 25 35.09375 
C 32.59375 36.671875 39.90625 43.375 39.90625 52.390625 
C 39.90625 60.25 32 66 23 66 
C 13.90625 66 5.90625 60.34375 5.90625 52.296875 
C 5.90625 48.796875 8.5 48.1875 9.796875 48.1875 
C 11.90625 48.1875 13.703125 49.484375 13.703125 52.09375 
C 13.703125 54.6875 11.90625 56 9.796875 56 
C 9.40625 56 8.90625 56 8.5 55.796875 
C 11.40625 62.484375 19.296875 63.6875 22.796875 63.6875 
C 26.296875 63.6875 32.90625 61.96875 32.90625 52.296875 
C 32.90625 49.484375 32.5 44.546875 29.09375 40.21875 
C 26.09375 36.390625 22.703125 36.1875 19.40625 35.890625 
C 18.90625 35.890625 16.59375 35.6875 16.203125 35.6875 
C 15.5 35.59375 15.09375 35.5 15.09375 34.796875 
C 15.09375 34.09375 15.203125 34 17.203125 34 
z
" id="CMR17-51"/>
      </defs>
      <g transform="translate(37.869921 286.851249)scale(0.1 -0.1)">
       <use transform="scale(0.996264)" xlink:href="#CMSY10-0"/>
       <use transform="translate(77.487468 0)scale(0.996264)" xlink:href="#CMR17-51"/>
      </g>
     </g>
    </g>
    <g id="ytick_2">
     <g id="line2d_9">
      <g>
       <use style="stroke:#000000;stroke-width:0.8;" x="57.6" xlink:href="#mf5e21e6c0b" y="235.008"/>
      </g>
     </g>
     <g id="text_10">
      <!-- $-2$ -->
      <defs>
       <path d="M 41.703125 15.46875 
L 39.90625 15.46875 
C 38.90625 8.390625 38.09375 7.1875 37.703125 6.59375 
C 37.203125 5.796875 30 5.796875 28.59375 5.796875 
L 9.40625 5.796875 
C 13 9.6875 20 16.765625 28.5 24.9375 
C 34.59375 30.71875 41.703125 37.5 41.703125 47.390625 
C 41.703125 59.1875 32.296875 66 21.796875 66 
C 10.796875 66 4.09375 56.296875 4.09375 47.296875 
C 4.09375 43.390625 7 42.890625 8.203125 42.890625 
C 9.203125 42.890625 12.203125 43.484375 12.203125 46.984375 
C 12.203125 50.09375 9.59375 51 8.203125 51 
C 7.59375 51 7 50.890625 6.59375 50.6875 
C 8.5 59.1875 14.296875 63.390625 20.40625 63.390625 
C 29.09375 63.390625 34.796875 56.5 34.796875 47.390625 
C 34.796875 38.703125 29.703125 31.21875 24 24.734375 
L 4.09375 2.296875 
L 4.09375 0 
L 39.296875 0 
z
" id="CMR17-50"/>
      </defs>
      <g transform="translate(37.869921 238.467249)scale(0.1 -0.1)">
       <use transform="scale(0.996264)" xlink:href="#CMSY10-0"/>
       <use transform="translate(77.487468 0)scale(0.996264)" xlink:href="#CMR17-50"/>
      </g>
     </g>
    </g>
    <g id="ytick_3">
     <g id="line2d_10">
      <g>
       <use style="stroke:#000000;stroke-width:0.8;" x="57.6" xlink:href="#mf5e21e6c0b" y="186.624"/>
      </g>
     </g>
     <g id="text_11">
      <!-- $-1$ -->
      <g transform="translate(37.869921 190.083249)scale(0.1 -0.1)">
       <use transform="scale(0.996264)" xlink:href="#CMSY10-0"/>
       <use transform="translate(77.487468 0)scale(0.996264)" xlink:href="#CMR17-49"/>
      </g>
     </g>
    </g>
    <g id="ytick_4">
     <g id="line2d_11">
      <g>
       <use style="stroke:#000000;stroke-width:0.8;" x="57.6" xlink:href="#mf5e21e6c0b" y="138.24"/>
      </g>
     </g>
     <g id="text_12">
      <!-- $0$ -->
      <g transform="translate(45.618665 141.699249)scale(0.1 -0.1)">
       <use transform="scale(0.996264)" xlink:href="#CMR17-48"/>
      </g>
     </g>
    </g>
    <g id="ytick_5">
     <g id="line2d_12">
      <g>
       <use style="stroke:#000000;stroke-width:0.8;" x="57.6" xlink:href="#mf5e21e6c0b" y="89.856"/>
      </g>
     </g>
     <g id="text_13">
      <!-- $1$ -->
      <g transform="translate(45.618665 93.315249)scale(0.1 -0.1)">
       <use transform="scale(0.996264)" xlink:href="#CMR17-49"/>
      </g>
     </g>
    </g>
    <g id="ytick_6">
     <g id="line2d_13">
      <g>
       <use style="stroke:#000000;stroke-width:0.8;" x="57.6" xlink:href="#mf5e21e6c0b" y="41.472"/>
      </g>
     </g>
     <g id="text_14">
      <!-- $2$ -->
      <g transform="translate(45.618665 44.931249)scale(0.1 -0.1)">
       <use transform="scale(0.996264)" xlink:href="#CMR17-50"/>
      </g>
     </g>
    </g>
    <g id="text_15">
     <!-- $x_2$ -->
     <g transform="translate(29.994287 183.485635)rotate(-90)scale(0.2 -0.2)">
      <use transform="translate(0 14.943915)scale(0.996264)" xlink:href="#CMMI12-120"/>
      <use transform="translate(55.43406 0)scale(0.697382)" xlink:href="#CMR17-50"/>
     </g>
    </g>
   </g>
   <g id="LineCollection_1"/>
   <g id="LineCollection_2">
    <path clip-path="url(#pbb3b7904f6)" d="M 414.72 97.750232 
L 411.152068 101.952 
L 408.768 104.896031 
L 404.984968 109.2096 
L 402.816 111.802443 
L 398.589635 116.4672 
L 396.454805 118.8864 
L 382.542491 133.4016 
L 377.65181 138.24 
L 367.316809 147.9168 
L 367.104 148.115731 
L 355.2 158.272674 
L 343.296 167.469331 
L 333.094508 174.528 
L 329.361993 176.9472 
L 325.44 179.437398 
L 317.148263 184.2048 
L 312.687735 186.624 
L 307.584 189.216843 
L 301.632 191.987231 
L 295.68 194.518232 
L 289.728 196.808684 
L 283.776 198.859926 
L 276.004821 201.1392 
L 271.872 202.2163 
L 265.845339 203.5584 
L 259.968 204.609854 
L 254.016 205.445614 
L 248.064 206.041662 
L 242.112 206.383801 
L 236.16 206.486905 
L 230.208 206.349907 
L 224.256 205.974107 
L 218.304 205.341749 
L 212.352 204.47308 
L 206.4 203.370422 
L 200.448 202.011138 
L 194.496 200.416794 
L 188.544 198.585503 
L 182.071896 196.3008 
L 175.951481 193.8816 
L 170.366748 191.4624 
L 164.736 188.8039 
L 156.017484 184.2048 
L 151.718843 181.7856 
L 146.88 178.916886 
L 136.471732 172.1088 
L 133.021098 169.6896 
L 129.024 166.847695 
L 117.12 157.5936 
L 105.216 147.354358 
L 92.987601 135.8208 
L 81.178034 123.7248 
L 66.10334 106.7904 
L 63.552 103.89647 
L 60.004297 99.5328 
L 57.6 96.717731 
L 57.6 96.717731 
" style="fill:none;stroke:#481769;stroke-width:1.5;"/>
    <path clip-path="url(#pbb3b7904f6)" d="M 144.194204 41.472 
L 146.88 43.133862 
L 148.165617 43.8912 
L 152.319595 46.3104 
L 152.832 46.607342 
L 156.709966 48.7296 
L 158.784 49.850474 
L 161.351793 51.1488 
L 164.736 52.844805 
L 166.294161 53.568 
L 170.688 55.596578 
L 171.611911 55.9872 
L 176.64 58.109305 
L 177.418584 58.4064 
L 182.592 60.383958 
L 183.889035 60.8256 
L 188.544 62.419024 
L 191.300791 63.2448 
L 194.496 64.210432 
L 200.114625 65.664 
L 200.448 65.751336 
L 206.4 67.068956 
L 212.110906 68.0832 
L 212.352 68.126868 
L 218.304 68.962586 
L 224.256 69.548397 
L 230.208 69.890691 
L 236.16 69.993095 
L 242.112 69.856678 
L 248.064 69.48001 
L 254.016 68.85909 
L 259.319522 68.0832 
L 259.968 67.990478 
L 265.92 66.897685 
L 271.344816 65.664 
L 271.872 65.54599 
L 277.824 63.968943 
L 280.175049 63.2448 
L 283.776 62.145474 
L 287.568186 60.8256 
L 289.728 60.077838 
L 294.03618 58.4064 
L 295.68 57.769768 
L 299.847268 55.9872 
L 301.632 55.222431 
L 305.171636 53.568 
L 307.584 52.434481 
L 310.120372 51.1488 
L 313.536 49.401995 
L 314.766979 48.7296 
L 319.152644 46.3104 
L 319.488 46.124956 
L 323.303039 43.8912 
L 325.44 42.62005 
L 327.278307 41.472 
" style="fill:none;stroke:#481769;stroke-width:1.5;"/>
   </g>
   <g id="LineCollection_3">
    <path clip-path="url(#pbb3b7904f6)" d="M 414.72 126.113377 
L 410.615816 130.9824 
L 408.637996 133.4016 
L 395.811462 147.9168 
L 384.96 159.394687 
L 371.835674 172.1088 
L 363.741832 179.3664 
L 361.002747 181.7856 
L 349.082989 191.4624 
L 339.183652 198.72 
L 335.691166 201.1392 
L 331.392 204.032635 
L 324.38422 208.3968 
L 319.488 211.284232 
L 311.339156 215.6544 
L 306.492628 218.0736 
L 301.28611 220.4928 
L 295.600521 222.912 
L 289.265857 225.3312 
L 282.027045 227.7504 
L 277.824 229.022297 
L 271.872 230.589808 
L 265.92 231.909826 
L 259.968 232.991 
L 254.016 233.824363 
L 248.064 234.420567 
L 242.112 234.775179 
L 236.16 234.885509 
L 230.208 234.750712 
L 224.256 234.371817 
L 218.304 233.751696 
L 210.689271 232.5888 
L 206.4 231.788106 
L 199.408793 230.1696 
L 194.496 228.852741 
L 188.544 227.022812 
L 182.592 224.951575 
L 176.64 222.636395 
L 170.688 220.076474 
L 164.736 217.272887 
L 156.992653 213.2352 
L 152.61046 210.816 
L 144.629294 205.9776 
L 140.79553 203.5584 
L 133.717224 198.72 
L 127.072871 193.8816 
L 120.799987 189.0432 
L 114.846212 184.2048 
L 109.166891 179.3664 
L 103.723368 174.528 
L 95.98409 167.2704 
L 93.312 164.746553 
L 81.408 152.595151 
L 68.471952 138.24 
L 57.6 125.37843 
L 57.6 125.37843 
" style="fill:none;stroke:#472a7a;stroke-width:1.5;"/>
    <path clip-path="url(#pbb3b7904f6)" d="M 229.995106 41.472 
L 230.208 41.484648 
L 236.16 41.594491 
L 241.586325 41.472 
" style="fill:none;stroke:#472a7a;stroke-width:1.5;"/>
   </g>
   <g id="LineCollection_4">
    <path clip-path="url(#pbb3b7904f6)" d="M 414.72 147.86692 
L 400.142681 164.8512 
L 395.795955 169.6896 
L 384.96 181.145132 
L 373.056 192.759909 
L 360.973285 203.5584 
L 352.086826 210.816 
L 349.050333 213.2352 
L 339.154819 220.4928 
L 335.659531 222.912 
L 331.392 225.782653 
L 324.34738 230.1696 
L 319.488 233.035346 
L 311.300323 237.4272 
L 306.449753 239.8464 
L 301.239199 242.2656 
L 295.550591 244.6848 
L 289.214445 247.104 
L 281.975416 249.5232 
L 277.824 250.781172 
L 271.872 252.349689 
L 265.92 253.671508 
L 259.968 254.754168 
L 254.016 255.589919 
L 248.064 256.187674 
L 242.112 256.543801 
L 236.16 256.656099 
L 230.208 256.523869 
L 224.256 256.147933 
L 218.304 255.530612 
L 210.644281 254.3616 
L 206.4 253.572258 
L 199.357289 251.9424 
L 194.496 250.64279 
L 188.544 248.81582 
L 182.592 246.747411 
L 176.64 244.435398 
L 170.688 241.879113 
L 164.736 239.079409 
L 156.921816 235.008 
L 152.543293 232.5888 
L 144.553287 227.7504 
L 140.725369 225.3312 
L 133.640394 220.4928 
L 126.991876 215.6544 
L 120.716234 210.816 
L 114.760582 205.9776 
L 109.080201 201.1392 
L 103.636725 196.3008 
L 95.890943 189.0432 
L 93.312 186.603965 
L 81.408 174.462887 
L 68.377485 160.0128 
L 57.6 147.268355 
L 57.6 147.268355 
" style="fill:none;stroke:#433d84;stroke-width:1.5;"/>
   </g>
   <g id="LineCollection_5">
    <path clip-path="url(#pbb3b7904f6)" d="M 414.72 166.199958 
L 401.411643 181.7856 
L 392.601946 191.4624 
L 390.353122 193.8816 
L 379.008 205.410399 
L 367.104 216.54016 
L 355.2 226.701366 
L 344.465375 235.008 
L 341.12524 237.4272 
L 337.344 240.129047 
L 330.486792 244.6848 
L 322.612743 249.5232 
L 318.442324 251.9424 
L 313.536 254.635751 
L 307.584 257.65376 
L 298.844021 261.6192 
L 292.903557 264.0384 
L 289.728 265.261636 
L 283.776 267.313493 
L 277.824 269.125464 
L 269.159879 271.296 
L 265.92 272.014033 
L 259.968 273.096435 
L 254.016 273.938376 
L 248.064 274.532693 
L 242.112 274.8871 
L 236.16 274.999731 
L 230.208 274.869988 
L 224.256 274.49856 
L 217.100837 273.7152 
L 212.352 273.027683 
L 203.581256 271.296 
L 200.448 270.586998 
L 194.072257 268.8768 
L 186.471334 266.4576 
L 179.836814 264.0384 
L 173.896281 261.6192 
L 168.46909 259.2 
L 163.429761 256.7808 
L 158.687655 254.3616 
L 150.127408 249.5232 
L 146.085645 247.104 
L 138.599139 242.2656 
L 134.976 239.840076 
L 125.068422 232.5888 
L 121.920269 230.1696 
L 115.902264 225.3312 
L 110.163694 220.4928 
L 102.048933 213.2352 
L 96.8831 208.3968 
L 91.889359 203.5584 
L 84.742252 196.3008 
L 80.13016 191.4624 
L 71.3376 181.7856 
L 69.169391 179.3664 
L 57.6 165.686145 
L 57.6 165.686145 
" style="fill:none;stroke:#3d4e8a;stroke-width:1.5;"/>
   </g>
   <g id="LineCollection_6">
    <path clip-path="url(#pbb3b7904f6)" d="M 414.72 182.357065 
L 402.816 196.398024 
L 390.912 209.463082 
L 379.008 221.562904 
L 367.104 232.697417 
L 355.902869 242.2656 
L 352.87526 244.6848 
L 346.637831 249.5232 
L 343.296 252.051017 
L 336.595147 256.7808 
L 329.240243 261.6192 
L 325.413313 264.0384 
L 317.013643 268.8768 
L 312.534881 271.296 
L 307.584 273.812424 
L 301.632 276.589071 
L 295.68 279.125065 
L 289.728 281.419857 
L 283.776 283.474033 
L 275.816107 285.8112 
L 271.872 286.846908 
L 265.623257 288.2304 
L 259.968 289.254643 
L 254.016 290.096345 
L 248.064 290.697452 
L 242.112 291.050976 
L 236.16 291.163918 
L 230.208 291.035749 
L 224.085479 290.6496 
L 218.304 290.050228 
L 212.352 289.193494 
L 206.4 288.099079 
L 200.448 286.755185 
L 194.496 285.173398 
L 188.544 283.351873 
L 181.792716 280.9728 
L 175.662897 278.5536 
L 170.076975 276.1344 
L 164.736 273.628772 
L 158.784 270.589023 
L 151.396406 266.4576 
L 146.88 263.79142 
L 139.707613 259.2 
L 132.666058 254.3616 
L 129.024 251.774947 
L 119.823397 244.6848 
L 116.780935 242.2656 
L 108.26078 235.008 
L 102.851964 230.1696 
L 97.646392 225.3312 
L 90.210243 218.0736 
L 85.442105 213.2352 
L 78.576523 205.9776 
L 74.138608 201.1392 
L 63.552 189.056286 
L 57.6 181.899893 
L 57.6 181.899893 
" style="fill:none;stroke:#355e8d;stroke-width:1.5;"/>
   </g>
   <g id="LineCollection_7">
    <path clip-path="url(#pbb3b7904f6)" d="M 414.72 196.962164 
L 402.816 211.002039 
L 390.912 224.067491 
L 379.008 236.166982 
L 367.104 247.300452 
L 356.008491 256.7808 
L 352.988902 259.2 
L 346.757357 264.0384 
L 343.296 266.654052 
L 336.728997 271.296 
L 329.382839 276.1344 
L 325.44 278.626219 
L 317.177504 283.392 
L 312.71225 285.8112 
L 307.584 288.416439 
L 301.632 291.193746 
L 295.68 293.730164 
L 289.728 296.025189 
L 283.776 298.079355 
L 276.163645 300.3264 
L 271.872 301.453964 
L 265.92 302.783535 
L 259.968 303.862691 
L 254.016 304.705301 
L 248.064 305.305718 
L 242.112 305.660249 
L 236.16 305.773951 
L 230.208 305.646336 
L 223.15078 305.1648 
L 218.304 304.663198 
L 212.352 303.806836 
L 206.4 302.713711 
L 200.448 301.370182 
L 194.496 299.789711 
L 188.367841 297.9072 
L 181.529443 295.488 
L 175.422096 293.0688 
L 169.855459 290.6496 
L 164.697953 288.2304 
L 158.784 285.211356 
L 151.213909 280.9728 
L 146.88 278.416145 
L 139.543889 273.7152 
L 132.508324 268.8768 
L 129.024 266.40337 
L 119.677274 259.2 
L 116.644522 256.7808 
L 108.12503 249.5232 
L 102.721131 244.6848 
L 97.520572 239.8464 
L 90.085998 232.5888 
L 85.322561 227.7504 
L 78.458678 220.4928 
L 74.025812 215.6544 
L 65.540579 205.9776 
L 61.450389 201.1392 
L 57.6 196.54446 
L 57.6 196.54446 
" style="fill:none;stroke:#2e6d8e;stroke-width:1.5;"/>
   </g>
   <g id="LineCollection_8">
    <path clip-path="url(#pbb3b7904f6)" d="M 178.063247 307.584 
L 176.64 307.031968 
L 172.283377 305.1648 
L 170.688 304.48151 
L 166.991484 302.7456 
L 164.736 301.688536 
L 162.068718 300.3264 
L 158.784 298.654546 
L 157.429641 297.9072 
L 153.027626 295.488 
L 152.832 295.380552 
L 148.933775 293.0688 
L 146.88 291.858189 
L 144.974454 290.6496 
L 141.134857 288.2304 
L 140.928 288.10016 
L 137.539836 285.8112 
L 134.976 284.094157 
L 133.996541 283.392 
L 130.609147 280.9728 
L 129.024 279.847726 
L 127.317404 278.5536 
L 124.10455 276.1344 
L 123.072 275.360248 
L 121.015135 273.7152 
L 117.962979 271.296 
L 117.12 270.630314 
L 115.035727 268.8768 
L 112.132495 266.4576 
L 111.168 265.657487 
L 109.334117 264.0384 
L 106.569678 261.6192 
L 105.216 260.442309 
L 103.872208 259.2 
L 101.237734 256.7808 
L 99.264 254.986291 
L 98.617404 254.3616 
L 96.105114 251.9424 
L 93.559065 249.5232 
L 93.312 249.288769 
L 91.144479 247.104 
L 88.715564 244.6848 
L 87.36 243.344733 
L 86.331933 242.2656 
L 84.013843 239.8464 
L 81.664519 237.4272 
L 81.408 237.163465 
L 79.433408 235.008 
L 77.191038 232.5888 
L 75.456 230.736191 
L 74.956081 230.1696 
L 72.815288 227.7504 
L 70.645883 225.3312 
L 69.504 224.066868 
L 68.521443 222.912 
L 66.450464 220.4928 
L 64.351659 218.0736 
L 63.552 217.156665 
L 62.318018 215.6544 
L 60.31474 213.2352 
L 58.284472 210.816 
L 57.6 210.004188 
" style="fill:none;stroke:#297b8e;stroke-width:1.5;"/>
    <path clip-path="url(#pbb3b7904f6)" d="M 414.72 210.393858 
L 414.363418 210.816 
L 412.32506 213.2352 
L 410.313955 215.6544 
L 408.768 217.533093 
L 408.295726 218.0736 
L 406.188589 220.4928 
L 404.109551 222.912 
L 402.816 224.429587 
L 402.000103 225.3312 
L 399.822127 227.7504 
L 397.673044 230.1696 
L 396.864 231.084789 
L 395.452569 232.5888 
L 393.201389 235.008 
L 390.979839 237.4272 
L 390.912 237.501093 
L 388.626307 239.8464 
L 386.299166 242.2656 
L 384.96 243.668372 
L 383.92955 244.6848 
L 381.491018 247.104 
L 379.084674 249.5232 
L 379.008 249.600306 
L 376.534274 251.9424 
L 374.012109 254.3616 
L 373.056 255.283244 
L 371.404938 256.7808 
L 368.759964 259.2 
L 367.104 260.727302 
L 366.075551 261.6192 
L 363.299938 264.0384 
L 361.152 265.930073 
L 360.514417 266.4576 
L 357.599278 268.8768 
L 355.2 270.890094 
L 354.684564 271.296 
L 351.619697 273.7152 
L 349.248 275.606873 
L 348.542342 276.1344 
L 345.315888 278.5536 
L 343.296 280.080902 
L 342.035516 280.9728 
L 338.633529 283.392 
L 337.344 284.313644 
L 335.10063 285.8112 
L 331.506511 288.2304 
L 331.392 288.307506 
L 327.659319 290.6496 
L 325.44 292.052372 
L 323.709267 293.0688 
L 319.613069 295.488 
L 319.488 295.561893 
L 315.201074 297.9072 
L 313.536 298.822389 
L 310.568399 300.3264 
L 307.584 301.843987 
L 305.651229 302.7456 
L 301.632 304.624293 
L 300.363541 305.1648 
L 295.68 307.161858 
L 294.585476 307.584 
" style="fill:none;stroke:#297b8e;stroke-width:1.5;"/>
   </g>
   <g id="LineCollection_9">
    <path clip-path="url(#pbb3b7904f6)" d="M 152.313578 307.584 
L 148.226075 305.1648 
L 146.88 304.371355 
L 144.315643 302.7456 
L 140.928 300.612607 
L 140.50412 300.3264 
L 136.916215 297.9072 
L 134.976 296.607693 
L 133.413346 295.488 
L 130.017755 293.0688 
L 129.024 292.363377 
L 126.762808 290.6496 
L 123.542683 288.2304 
L 123.072 287.877442 
L 120.487038 285.8112 
L 117.428207 283.392 
L 117.12 283.148558 
L 114.532272 280.9728 
L 111.622675 278.5536 
L 111.168 278.176313 
L 108.853714 276.1344 
L 106.08297 273.7152 
L 105.216 272.961211 
L 103.413541 271.296 
L 100.772616 268.8768 
L 99.264 267.504672 
L 98.179443 266.4576 
L 95.660383 264.0384 
L 93.312 261.809 
L 93.123528 261.6192 
L 90.719252 259.2 
L 88.284938 256.7808 
L 87.36 255.866016 
L 85.925642 254.3616 
L 83.601449 251.9424 
L 81.408 249.685886 
L 81.258818 249.5232 
L 79.038906 247.104 
L 76.791329 244.6848 
L 75.456 243.258206 
L 74.579442 242.2656 
L 72.432467 239.8464 
L 70.258535 237.4272 
L 69.504 236.591256 
L 68.155751 235.008 
L 66.079096 232.5888 
L 63.976237 230.1696 
L 63.552 229.682833 
L 61.963164 227.7504 
L 59.954533 225.3312 
L 57.920491 222.912 
L 57.6 222.531623 
" style="fill:none;stroke:#23898e;stroke-width:1.5;"/>
    <path clip-path="url(#pbb3b7904f6)" d="M 414.72 222.896785 
L 414.707158 222.912 
L 412.665783 225.3312 
L 410.650042 227.7504 
L 408.768 230.035601 
L 408.651006 230.1696 
L 406.540584 232.5888 
L 404.456601 235.008 
L 402.816 236.931218 
L 402.367494 237.4272 
L 400.18577 239.8464 
L 398.031245 242.2656 
L 396.864 243.585002 
L 395.832597 244.6848 
L 393.576996 247.104 
L 391.349309 249.5232 
L 390.912 249.999207 
L 389.019391 251.9424 
L 386.686937 254.3616 
L 384.96 256.169364 
L 384.3405 256.7808 
L 381.897405 259.2 
L 379.484625 261.6192 
L 379.008 262.09822 
L 376.959904 264.0384 
L 374.431803 266.4576 
L 373.056 267.783054 
L 371.850762 268.8768 
L 369.200217 271.296 
L 367.104 273.228325 
L 366.542853 273.7152 
L 363.76186 276.1344 
L 361.152 278.431766 
L 361.004813 278.5536 
L 358.084279 280.9728 
L 355.2 283.392 
L 355.2 283.392 
L 352.129477 285.8112 
L 349.248 288.108566 
L 349.085085 288.2304 
L 345.852429 290.6496 
L 343.296 292.581925 
L 342.608144 293.0688 
L 339.19908 295.488 
L 337.344 296.813454 
L 335.70602 297.9072 
L 332.103575 300.3264 
L 331.392 300.80542 
L 328.300644 302.7456 
L 325.44 304.553364 
L 324.399102 305.1648 
L 320.293797 307.584 
" style="fill:none;stroke:#23898e;stroke-width:1.5;"/>
   </g>
   <g id="LineCollection_10">
    <path clip-path="url(#pbb3b7904f6)" d="M 133.892359 307.584 
L 130.502106 305.1648 
L 129.024 304.115433 
L 127.215774 302.7456 
L 124.001188 300.3264 
L 123.072 299.629503 
L 120.916244 297.9072 
L 117.862896 295.488 
L 117.12 294.901093 
L 114.939609 293.0688 
L 112.035214 290.6496 
L 111.168 289.929813 
L 109.24081 288.2304 
L 106.474798 285.8112 
L 105.216 284.716134 
L 103.781874 283.392 
L 101.145047 280.9728 
L 99.264 279.261383 
L 98.530418 278.5536 
L 96.014689 276.1344 
L 93.469146 273.7152 
L 93.312 273.565973 
L 91.056723 271.296 
L 88.626709 268.8768 
L 87.36 267.62349 
L 86.247628 266.4576 
L 83.926651 264.0384 
L 81.578102 261.6192 
L 81.408 261.444145 
L 79.348924 259.2 
L 77.105117 256.7808 
L 75.456 255.018123 
L 74.875791 254.3616 
L 72.73128 251.9424 
L 70.561475 249.5232 
L 69.504 248.351016 
L 68.441231 247.104 
L 66.36725 244.6848 
L 64.26869 242.2656 
L 63.552 241.442807 
L 62.238343 239.8464 
L 60.232429 237.4272 
L 58.202688 235.008 
L 57.6 234.29226 
" style="fill:none;stroke:#1f978b;stroke-width:1.5;"/>
    <path clip-path="url(#pbb3b7904f6)" d="M 414.72 234.635815 
L 414.406093 235.008 
L 412.369683 237.4272 
L 410.357293 239.8464 
L 408.768 241.774714 
L 408.339699 242.2656 
L 406.234253 244.6848 
L 404.153587 247.104 
L 402.816 248.67091 
L 402.045781 249.5232 
L 399.868871 251.9424 
L 397.717464 254.3616 
L 396.864 255.325685 
L 395.500188 256.7808 
L 393.249053 259.2 
L 391.024107 261.6192 
L 390.912 261.741153 
L 388.675794 264.0384 
L 386.34726 266.4576 
L 384.96 267.908942 
L 383.979894 268.8768 
L 381.541845 271.296 
L 379.132232 273.7152 
L 379.008 273.839989 
L 376.587147 276.1344 
L 374.063126 278.5536 
L 373.056 279.52338 
L 371.45956 280.9728 
L 368.813904 283.392 
L 367.104 284.967479 
L 366.131983 285.8112 
L 363.356557 288.2304 
L 361.152 290.170159 
L 360.573018 290.6496 
L 357.658569 293.0688 
L 355.2 295.13013 
L 354.745909 295.488 
L 351.681797 297.9072 
L 349.248 299.846959 
L 348.607108 300.3264 
L 345.380969 302.7456 
L 343.296 304.321079 
L 342.104339 305.1648 
L 338.701645 307.584 
" style="fill:none;stroke:#1f978b;stroke-width:1.5;"/>
   </g>
   <g id="LineCollection_11">
    <path clip-path="url(#pbb3b7904f6)" d="M 119.104071 307.584 
L 117.12 306.01625 
L 116.106312 305.1648 
L 113.215049 302.7456 
L 111.168 301.046183 
L 110.351332 300.3264 
L 107.597621 297.9072 
L 105.216 295.834833 
L 104.840157 295.488 
L 102.214677 293.0688 
L 99.55976 290.6496 
L 99.264 290.380449 
L 97.034578 288.2304 
L 94.501238 285.8112 
L 93.312 284.681518 
L 92.030067 283.392 
L 89.610999 280.9728 
L 87.36 278.744811 
L 87.177453 278.5536 
L 84.866109 276.1344 
L 82.528965 273.7152 
L 81.408 272.561136 
L 80.246434 271.296 
L 78.012552 268.8768 
L 75.753509 266.4576 
L 75.456 266.139494 
L 73.598117 264.0384 
L 71.438358 261.6192 
L 69.504 259.474014 
L 69.270305 259.2 
L 67.204753 256.7808 
L 65.116196 254.3616 
L 63.552 252.564929 
L 63.03935 251.9424 
L 61.041714 249.5232 
L 59.021781 247.104 
L 57.6 245.414615 
" style="fill:none;stroke:#21a585;stroke-width:1.5;"/>
    <path clip-path="url(#pbb3b7904f6)" d="M 414.72 245.738977 
L 413.569442 247.104 
L 411.543422 249.5232 
L 409.539868 251.9424 
L 408.768 252.878304 
L 407.474586 254.3616 
L 405.37974 256.7808 
L 403.308072 259.2 
L 402.816 259.776077 
L 401.151297 261.6192 
L 398.985041 264.0384 
L 396.864 266.433224 
L 396.841164 266.4576 
L 394.575215 268.8768 
L 392.334623 271.296 
L 390.912 272.842879 
L 390.063197 273.7152 
L 387.718919 276.1344 
L 385.400644 278.5536 
L 384.96 279.01436 
L 382.977705 280.9728 
L 380.551267 283.392 
L 379.008 284.941588 
L 378.090786 285.8112 
L 375.549601 288.2304 
L 373.056 290.630664 
L 373.03515 290.6496 
L 370.371872 293.0688 
L 367.738275 295.488 
L 367.104 296.072168 
L 364.990729 297.9072 
L 362.228357 300.3264 
L 361.152 301.27311 
L 359.37441 302.7456 
L 356.473888 305.1648 
L 355.2 306.232492 
L 353.485653 307.584 
" style="fill:none;stroke:#21a585;stroke-width:1.5;"/>
   </g>
   <g id="LineCollection_12">
    <path clip-path="url(#pbb3b7904f6)" d="M 106.569956 307.584 
L 105.216 306.40564 
L 103.870857 305.1648 
L 101.234162 302.7456 
L 99.264 300.952218 
L 98.614747 300.3264 
L 96.098282 297.9072 
L 93.554879 295.488 
L 93.312 295.25723 
L 91.135504 293.0688 
L 88.706396 290.6496 
L 87.36 289.316621 
L 86.322532 288.2304 
L 84.001092 285.8112 
L 81.654748 283.392 
L 81.408 283.137893 
L 79.419207 280.9728 
L 77.175937 278.5536 
L 75.456 276.713869 
L 74.94329 276.1344 
L 72.797596 273.7152 
L 70.629031 271.296 
L 69.504 270.04793 
L 68.504679 268.8768 
L 66.429989 266.4576 
L 64.333089 264.0384 
L 63.552 263.140897 
L 62.298211 261.6192 
L 60.291812 259.2 
L 58.263888 256.7808 
L 57.6 255.991649 
" style="fill:none;stroke:#2eb37c;stroke-width:1.5;"/>
    <path clip-path="url(#pbb3b7904f6)" d="M 414.72 256.302135 
L 414.316724 256.7808 
L 412.283075 259.2 
L 410.271103 261.6192 
L 408.768 263.440873 
L 408.24719 264.0384 
L 406.144368 266.4576 
L 404.063914 268.8768 
L 402.816 270.337098 
L 401.950276 271.296 
L 399.775587 273.7152 
L 397.623934 276.1344 
L 396.864 276.991967 
L 395.401687 278.5536 
L 393.152085 280.9728 
L 390.926163 283.392 
L 390.912 283.407393 
L 388.574054 285.8112 
L 386.246064 288.2304 
L 384.96 289.574669 
L 383.872344 290.6496 
L 381.436267 293.0688 
L 379.025893 295.488 
L 379.008 295.505958 
L 376.476313 297.9072 
L 373.952632 300.3264 
L 373.056 301.189117 
L 371.342832 302.7456 
L 368.698444 305.1648 
L 367.104 306.632844 
L 366.008921 307.584 
" style="fill:none;stroke:#2eb37c;stroke-width:1.5;"/>
   </g>
   <g id="LineCollection_13">
    <path clip-path="url(#pbb3b7904f6)" d="M 95.652883 307.584 
L 93.312 305.359222 
L 93.118544 305.1648 
L 90.709614 302.7456 
L 88.276113 300.3264 
L 87.36 299.4192 
L 85.915268 297.9072 
L 83.589141 295.488 
L 81.408 293.241073 
L 81.24967 293.0688 
L 79.024881 290.6496 
L 76.777445 288.2304 
L 75.456 286.816514 
L 74.566104 285.8112 
L 72.415799 283.392 
L 70.243471 280.9728 
L 69.504 280.152203 
L 68.139273 278.5536 
L 66.060284 276.1344 
L 63.959915 273.7152 
L 63.552 273.246333 
L 61.944246 271.296 
L 59.933763 268.8768 
L 57.902562 266.4576 
L 57.6 266.097822 
" style="fill:none;stroke:#46c06f;stroke-width:1.5;"/>
    <path clip-path="url(#pbb3b7904f6)" d="M 414.72 266.395569 
L 414.667761 266.4576 
L 412.631171 268.8768 
L 410.615437 271.296 
L 408.768 273.534008 
L 408.610134 273.7152 
L 406.504185 276.1344 
L 404.419761 278.5536 
L 402.816 280.429532 
L 402.325705 280.9728 
L 400.147602 283.392 
L 397.991671 285.8112 
L 396.864 287.083256 
L 395.790191 288.2304 
L 393.536776 290.6496 
L 391.306163 293.0688 
L 390.912 293.497021 
L 388.976205 295.488 
L 386.643886 297.9072 
L 384.96 299.666688 
L 384.292686 300.3264 
L 381.852595 302.7456 
L 379.437249 305.1648 
L 379.008 305.595482 
L 376.912059 307.584 
" style="fill:none;stroke:#46c06f;stroke-width:1.5;"/>
   </g>
   <g id="LineCollection_14">
    <path clip-path="url(#pbb3b7904f6)" d="M 85.903356 307.584 
L 83.576797 305.1648 
L 81.408 302.930055 
L 81.238406 302.7456 
L 79.012677 300.3264 
L 76.765176 297.9072 
L 75.456 296.506075 
L 74.554433 295.488 
L 72.403463 293.0688 
L 70.231328 290.6496 
L 69.504 289.842248 
L 68.127365 288.2304 
L 66.047889 285.8112 
L 63.947871 283.392 
L 63.552 282.936837 
L 61.93221 280.9728 
L 59.921328 278.5536 
L 57.890543 276.1344 
L 57.6 275.7888 
" style="fill:none;stroke:#65cb5e;stroke-width:1.5;"/>
    <path clip-path="url(#pbb3b7904f6)" d="M 414.72 276.074814 
L 414.669839 276.1344 
L 412.633975 278.5536 
L 410.61814 280.9728 
L 408.768 283.213181 
L 408.612258 283.392 
L 406.506978 285.8112 
L 404.422371 288.2304 
L 402.816 290.10867 
L 402.327983 290.6496 
L 400.150397 293.0688 
L 397.994111 295.488 
L 396.864 296.762351 
L 395.792686 297.9072 
L 393.539535 300.3264 
L 391.308297 302.7456 
L 390.912 303.175995 
L 388.978904 305.1648 
L 386.646488 307.584 
" style="fill:none;stroke:#65cb5e;stroke-width:1.5;"/>
   </g>
   <g id="LineCollection_15">
    <path clip-path="url(#pbb3b7904f6)" d="M 77.095115 307.584 
L 75.456 305.829338 
L 74.867286 305.1648 
L 72.718761 302.7456 
L 70.549926 300.3264 
L 69.504 299.165092 
L 68.429236 297.9072 
L 66.352275 295.488 
L 64.255604 293.0688 
L 63.552 292.259583 
L 62.223647 290.6496 
L 60.215267 288.2304 
L 58.187792 285.8112 
L 57.6 285.11181 
" style="fill:none;stroke:#89d548;stroke-width:1.5;"/>
    <path clip-path="url(#pbb3b7904f6)" d="M 414.72 285.38698 
L 414.363008 285.8112 
L 412.330742 288.2304 
L 410.317686 290.6496 
L 408.768 292.525454 
L 408.294934 293.0688 
L 406.193296 295.488 
L 404.111487 297.9072 
L 402.816 299.421432 
L 401.999814 300.3264 
L 399.825828 302.7456 
L 397.672277 305.1648 
L 396.864 306.075939 
L 395.453225 307.584 
" style="fill:none;stroke:#89d548;stroke-width:1.5;"/>
   </g>
   <g id="LineCollection_16">
    <path clip-path="url(#pbb3b7904f6)" d="M 69.0109 307.584 
L 66.938819 305.1648 
L 64.847843 302.7456 
L 63.552 301.254855 
L 62.785657 300.3264 
L 60.782064 297.9072 
L 58.760166 295.488 
L 57.6 294.107178 
" style="fill:none;stroke:#b0dd2f;stroke-width:1.5;"/>
    <path clip-path="url(#pbb3b7904f6)" d="M 414.72 294.372296 
L 413.781415 295.488 
L 411.754992 297.9072 
L 409.746978 300.3264 
L 408.768 301.511019 
L 407.693443 302.7456 
L 405.597773 305.1648 
L 403.521106 307.584 
" style="fill:none;stroke:#b0dd2f;stroke-width:1.5;"/>
   </g>
   <g id="LineCollection_17">
    <path clip-path="url(#pbb3b7904f6)" d="M 61.592919 307.584 
L 59.578368 305.1648 
L 57.6 302.809544 
" style="fill:none;stroke:#d8e219;stroke-width:1.5;"/>
    <path clip-path="url(#pbb3b7904f6)" d="M 414.72 303.065318 
L 412.954353 305.1648 
L 410.935523 307.584 
" style="fill:none;stroke:#d8e219;stroke-width:1.5;"/>
   </g>
   <g id="LineCollection_18"/>
   <g id="line2d_14">
    <defs>
     <path d="M 0 -3 
L -0.673542 -0.927051 
L -2.85317 -0.927051 
L -1.089814 0.354102 
L -1.763356 2.427051 
L -0 1.145898 
L 1.763356 2.427051 
L 1.089814 0.354102 
L 2.85317 -0.927051 
L 0.673542 -0.927051 
z
" id="m930ae4ef1d" style="stroke:#008000;stroke-linejoin:bevel;"/>
    </defs>
    <g clip-path="url(#pbb3b7904f6)">
     <use style="fill:#008000;stroke:#008000;stroke-linejoin:bevel;" x="93.312" xlink:href="#m930ae4ef1d" y="89.856"/>
     <use style="fill:#008000;stroke:#008000;stroke-linejoin:bevel;" x="96.254562" xlink:href="#m930ae4ef1d" y="71.437462"/>
     <use style="fill:#008000;stroke:#008000;stroke-linejoin:bevel;" x="327.001194" xlink:href="#m930ae4ef1d" y="291.860838"/>
     <use style="fill:#008000;stroke:#008000;stroke-linejoin:bevel;" x="327.038669" xlink:href="#m930ae4ef1d" y="110.040606"/>
     <use style="fill:#008000;stroke:#008000;stroke-linejoin:bevel;" x="355.199442" xlink:href="#m930ae4ef1d" y="92.564182"/>
     <use style="fill:#008000;stroke:#008000;stroke-linejoin:bevel;" x="355.199488" xlink:href="#m930ae4ef1d" y="89.856417"/>
     <use style="fill:#008000;stroke:#008000;stroke-linejoin:bevel;" x="355.2" xlink:href="#m930ae4ef1d" y="89.856"/>
    </g>
   </g>
   <g id="line2d_15">
    <path clip-path="url(#pbb3b7904f6)" d="M 93.312 89.856 
L 96.254562 71.437462 
L 327.001194 291.860838 
L 327.038669 110.040606 
L 355.199442 92.564182 
L 355.199488 89.856417 
L 355.2 89.856 
" style="fill:none;stroke:#1f77b4;stroke-linecap:square;stroke-width:1.5;"/>
   </g>
   <g id="patch_3">
    <path d="M 57.6 307.584 
L 57.6 41.472 
" style="fill:none;stroke:#000000;stroke-linecap:square;stroke-linejoin:miter;stroke-width:0.8;"/>
   </g>
   <g id="patch_4">
    <path d="M 414.72 307.584 
L 414.72 41.472 
" style="fill:none;stroke:#000000;stroke-linecap:square;stroke-linejoin:miter;stroke-width:0.8;"/>
   </g>
   <g id="patch_5">
    <path d="M 57.6 307.584 
L 414.72 307.584 
" style="fill:none;stroke:#000000;stroke-linecap:square;stroke-linejoin:miter;stroke-width:0.8;"/>
   </g>
   <g id="patch_6">
    <path d="M 57.6 41.472 
L 414.72 41.472 
" style="fill:none;stroke:#000000;stroke-linecap:square;stroke-linejoin:miter;stroke-width:0.8;"/>
   </g>
  </g>
 </g>
 <defs>
  <clipPath id="pbb3b7904f6">
   <rect height="266.112" width="357.12" x="57.6" y="41.472"/>
  </clipPath>
 </defs>
</svg>
